<?xml version="1.0" encoding="UTF-8"?>
<svg viewBox="0 0 500 600" version="1.1" xmlns="http://www.w3.org/2000/svg" xmlns:xlink="http://www.w3.org/1999/xlink" preserveAspectRatio="xMidYMid">
    <g>
        <path d="M146.32,151.89c1.54,2,2.95,4.13,4.65,5.99c25.05,27.52,55.28,46.6,91.41,56.11
		c20.82,5.48,41.97,7.31,63.43,6.11c21.43-1.2,41.89-6.45,61.77-14.39c22.82-9.12,44.6-20.3,65.82-32.65
		c33.62-19.56,65.59-41.59,96.43-65.24c15.16-11.62,29.92-23.76,44.86-35.66c0.5-0.4,1.02-0.78,1.47-1.23
		c1.81-1.8,3.73-1.98,6.11-1.01c15.88,6.51,31.79,12.92,47.69,19.38c1.76,0.71,1.79,1.04,0.32,2.36
		c-15.82,14.22-32.2,27.76-49.09,40.7c-34.45,26.38-70.52,50.27-108.77,70.78c-27.77,14.88-56.43,27.79-86.46,37.49
		c-19.18,6.19-38.69,11.04-58.64,13.98c-8.69,1.28-17.45,2.08-26.2,2.84c-5.07,0.44-10.18,0.62-15.27,0.5
		c-20.74-0.47-41.23-2.8-61.22-8.67c-32.19-9.46-60.29-26-84.67-48.95c-17.09-16.08-31.7-34.22-44.24-54.04
		c-0.56-0.88-1.11-1.75-1.68-2.62c-1.03-1.59-2.43-2.78-4.19-3.45c-2.01-0.77-4.05-1.48-6.11-2.08
		c-25.21-7.34-50.43-14.66-75.64-21.98c-2.6-0.75-5.2-1.5-8.1-2.34c0.07-0.77-0.06-1.76,0.27-2.57c2.43-6.08,4.96-12.11,7.43-18.17
		c2.02-4.95,4-9.92,6.03-14.87c1.13-2.75,1.4-2.88,4.06-1.77c26.56,11.02,54.13,18.71,82.15,24.94c3.63,0.81,4.38,0.35,6.69-2.56
		c3.52-4.44,6.99-8.97,10.93-13.03c12.45-12.79,25.63-24.79,39.89-35.54c19.62-14.8,41.34-25.66,64.42-33.89
		c16.82-6,34.08-10.3,51.75-12.83c10.99-1.57,22.02-2.95,33.15-3.15c10.14-0.18,20.29-0.61,30.41-0.27
		c10.76,0.35,21.49,1.41,32.21,2.6c14.55,1.63,28.93,4.13,43.22,7.19c15,3.21,29.73,7.4,44.31,12.17
		c15.93,5.21,31.97,10.09,47.55,16.3c12.31,4.91,24.6,9.85,36.89,14.8c0.98,0.4,2.56,0.48,2.49,1.8c-0.04,0.76-1.16,1.59-1.96,2.17
		c-12.35,9.03-25.57,16.64-38.99,23.91c-43.97,23.84-89.98,42.64-138.21,55.96c-19.25,5.31-38.74,9.65-58.42,12.98
		c-10.07,1.71-20.24,2.92-30.4,4.02c-10.4,1.12-20.84,2.09-31.28,2.64c-9.09,0.47-18.22,0.23-27.33,0.37
		c-12.97,0.19-25.9-0.66-38.8-1.72c-9.62-0.79-19.17-2.42-28.75-3.68c-1-0.13-2.01-0.27-3.01-0.41
		C146.58,151.45,146.45,151.67,146.32,151.89z M149.92,109.78c58.19,7.48,115.66,5.67,172.77-5.73
		c42.79-8.54,83.66-22.72,123.19-42.66c-1.18-0.67-1.81-1.1-2.49-1.4c-1.54-0.67-3.1-1.29-4.66-1.89
		c-17.41-6.68-35.3-11.69-53.59-15.27c-12.95-2.53-25.99-4.4-39.16-5.28c-10.85-0.73-21.7-0.84-32.59-0.26
		c-12.95,0.69-25.81,1.89-38.52,4.49c-14.4,2.95-28.68,6.44-42.49,11.52c-31.27,11.51-57.52,30.6-80.82,54.06
		C150.98,107.96,150.61,108.76,149.92,109.78z M305.81,397.03c0,2.47,0,4.94,0,7.42c0,5.44,0.01,10.87-0.01,16.31
		c-0.01,2.96-0.58,3.56-3.47,3.58c-4.08,0.04-8.15,0.04-12.23,0c-2.5-0.02-3.07-0.63-3.17-3.12c-0.02-0.48,0-0.96,0-1.44
		c0-27.97,0-55.95,0-83.92c0-4.34,0.33-4.68,4.57-4.68c6.95,0,13.91-0.04,20.86,0.01c9.07,0.07,16.7,5.68,19.19,14.21
		c0.53,1.81,0.77,3.76,0.81,5.66c0.1,5.83-0.12,11.67,0.08,17.5c0.26,7.64-3.3,13.11-9.19,17.41c-0.32,0.24-0.67,0.44-1,0.66
		c-0.33,0.22-0.65,0.44-1.14,0.77c0.31,0.82,0.58,1.62,0.91,2.41c4.22,10,8.4,20.02,12.71,29.98c1.72,3.98,0.66,4.73-3.12,4.6
		c-3.67-0.13-7.35-0.01-11.03-0.03c-2.83-0.02-3.56-0.53-4.63-3.23c-2.95-7.42-5.88-14.84-8.82-22.26
		c-0.25-0.64-0.52-1.27-0.78-1.91C306.17,396.97,305.99,397,305.81,397.03z M305.9,372.4c1.54,0,2.81,0.03,4.08-0.01
		c2.46-0.08,3.58-1.23,3.65-3.74c0.04-1.6,0.01-3.19,0.01-4.79c0-3.91,0.03-7.82-0.01-11.73c-0.02-1.96-0.89-3.34-2.53-3.57
		c-1.69-0.23-3.43-0.05-5.2-0.05C305.9,356.53,305.9,364.33,305.9,372.4z M500.29,358.02c0-0.61,0-1.22,0-1.83
		c0-7.19,0.01-14.39-0.01-21.58c-0.01-2.76-0.63-3.42-3.35-3.44c-4-0.03-7.99-0.03-11.99,0c-2.79,0.02-3.41,0.63-3.42,3.36
		c-0.02,4.08-0.01,8.15-0.01,12.23c0,24.54,0,49.08,0,73.62c0,3.61,0.33,3.94,4.01,3.95c3.84,0.01,7.67,0.03,11.51-0.01
		c2.69-0.03,3.24-0.59,3.25-3.26c0.02-5.44,0.11-10.87-0.04-16.31c-0.07-2.62,0.6-4.85,2.31-7.01c0.4,0.86,0.78,1.63,1.12,2.42
		c3.09,7.01,6.23,14.01,9.23,21.06c0.95,2.22,2.35,3.2,4.76,3.14c4.15-0.1,8.32-0.15,12.47,0.01c3.31,0.13,4.34-1.06,2.95-4.29
		c-6.45-14.95-12.69-29.99-19.09-44.97c-0.67-1.57-0.57-2.72,0.22-4.2c6.45-11.94,12.82-23.93,19.2-35.92
		c1.49-2.8,0.87-3.82-2.27-3.83c-4.4-0.02-8.79,0.06-13.19-0.03c-2.28-0.05-3.68,0.87-4.7,2.93c-2.55,5.15-5.26,10.22-7.92,15.32
		c-1.51,2.9-3.03,5.8-4.54,8.69C500.63,358.07,500.46,358.05,500.29,358.02z M160.04,377.59c0-9.35-0.07-18.71,0.02-28.06
		c0.09-8.7,5.68-16.06,13.94-18.64c0.76-0.24,1.54-0.51,2.32-0.57c4.54-0.39,9.11-0.74,13.6,0.21c8.84,1.87,15.22,9.61,15.43,18.66
		c0.12,5.43,0.03,10.87,0.03,16.31c0,13.35-0.09,26.7,0.03,40.05c0.07,7.99-4.98,15.89-12.89,18.68c-2.07,0.73-4.34,1.17-6.53,1.26
		c-3.26,0.13-6.59,0.17-9.79-0.36c-9.32-1.57-16.02-9.52-16.14-18.99C159.95,396.62,160.05,387.1,160.04,377.59
		C160.04,377.59,160.04,377.59,160.04,377.59z M178.82,377.59c0,8.47,0,16.93,0,25.4c0,0.56-0.02,1.12,0.01,1.68
		c0.11,2.18,1.27,3.37,3.42,3.53c2.84,0.21,4.3-1.14,4.35-4.03c0.01-0.32,0-0.64,0-0.96c0-16.93,0-33.87,0-50.8
		c0-0.64,0.03-1.28-0.02-1.92c-0.15-1.7-1.2-2.83-2.8-3.09c-2.27-0.37-4.08,0.33-4.67,1.97c-0.28,0.8-0.28,1.72-0.28,2.59
		C178.81,360.5,178.82,369.04,178.82,377.59z M441.55,407.22c-3.03,0-5.8,0-8.75,0c-0.2,1.96-0.41,3.84-0.57,5.73
		c-0.22,2.63-0.39,5.26-0.6,7.88c-0.22,2.77-0.95,3.48-3.73,3.49c-4.07,0.02-8.15,0.03-12.22,0c-2.87-0.02-3.38-0.67-3.01-3.47
		c1.57-11.87,3.11-23.74,4.68-35.61c1.52-11.55,3.07-23.11,4.59-34.66c0.7-5.3,1.39-10.61,2.06-15.91c0.35-2.77,1.07-3.49,3.81-3.5
		c6.23-0.02,12.46-0.02,18.69,0c2.65,0.01,3.45,0.7,3.79,3.27c1.34,10.21,2.64,20.42,3.98,30.63c1.36,10.37,2.76,20.73,4.12,31.1
		c1.1,8.39,2.19,16.78,3.27,25.17c0.28,2.19-0.32,2.94-2.59,2.96c-4.39,0.06-8.79,0.05-13.18,0c-2.22-0.02-2.98-0.79-3.17-3.02
		c-0.35-4.06-0.66-8.12-0.99-12.18C441.68,408.58,441.62,408.03,441.55,407.22z M437.44,356.21c-0.2,0.01-0.4,0.01-0.6,0.02
		c-0.9,10.9-1.95,21.8-2.76,32.74c2.22,0,4.1,0,6.18,0C439.31,377.94,438.37,367.07,437.44,356.21z M94.97,405.39
		c0.04,10.09,6.78,18.22,16.67,19.83c3.12,0.51,6.37,0.37,9.56,0.31c10.34-0.19,19.02-8.85,19.23-19.2
		c0.11-5.43,0.04-10.87,0.01-16.3c-0.01-2.61-0.87-3.47-3.55-3.83c-4.19-0.56-8.39-1.13-12.58-1.71c-2.08-0.29-2.59,0.09-2.63,2.25
		c-0.05,3.28-0.01,6.55-0.02,9.83c0,2.64,0,5.27,0,7.91c0,1.36-0.42,2.52-1.63,3.27c-2.78,1.73-6.08,0.04-6.28-3.22
		c-0.03-0.48-0.01-0.96-0.01-1.44c0-16.86,0-33.72,0-50.58c0-0.56-0.03-1.12,0.02-1.68c0.19-2.39,1.45-3.5,3.94-3.5
		c2.49,0,3.77,1.11,3.95,3.49c0.05,0.64,0.01,1.28,0.01,1.92c0,3.2-0.04,6.39,0.02,9.59c0.03,1.91,0.6,2.42,2.28,2.16
		c4.42-0.68,8.83-1.36,13.24-2.11c2.54-0.43,3.21-1.27,3.23-3.87c0.03-3.12,0.07-6.23-0.01-9.35c-0.22-8.7-6.58-16.62-15.05-18.54
		c-4.72-1.07-9.58-1.04-14.29-0.18c-9.54,1.74-16.06,9.85-16.11,19.58c-0.05,9.19-0.01,18.38-0.01,27.57
		C94.97,386.85,94.93,396.12,94.97,405.39z M57.12,374.7c3.84,0,7.67,0.03,11.51-0.01c2.23-0.03,2.86-0.65,2.89-2.87
		c0.05-4.31,0.05-8.63,0-12.95c-0.02-2.38-0.59-2.9-3.06-2.92c-4-0.03-7.99,0-11.99-0.01c-0.7,0-1.39-0.07-2.2-0.11
		c0-7.07,0-13.99,0-21.22c1.7,0,3.35,0,5.01,0c3.92,0,7.83,0.04,11.75-0.02c2.06-0.03,2.77-0.63,2.79-2.46
		c0.06-4.63,0.05-9.27-0.01-13.9c-0.02-1.49-0.72-2.14-2.2-2.35c-0.55-0.08-1.12-0.05-1.67-0.05c-10.23,0-20.46-0.01-30.68,0
		c-3.38,0-3.86,0.5-3.88,3.87c0,0.48,0,0.96,0,1.44c0,15.02,0,30.05,0,45.07c0,18.06,0,36.12,0,54.18c0,3.62,0.32,3.93,4,3.94
		c10.15,0.01,20.3,0,30.45,0c0.56,0,1.12,0.02,1.68-0.04c1.66-0.17,2.3-0.75,2.32-2.45c0.05-4.63,0.05-9.27-0.01-13.9
		c-0.02-1.49-0.72-2.14-2.2-2.35c-0.63-0.09-1.28-0.05-1.91-0.05c-4.47,0-8.95,0.01-13.42-0.01c-0.68,0-1.36-0.1-2.03-0.16
		c0-10.28,0-20.32,0-30.66C55.38,374.7,56.25,374.7,57.12,374.7z M376.85,349.99c4.56,0,9.11,0.03,13.67-0.02
		c2.31-0.02,3.07-0.64,3.11-2.7c0.08-4.48,0.07-8.95,0-13.43c-0.03-1.86-0.82-2.52-2.71-2.66c-0.56-0.04-1.12-0.01-1.68-0.01
		c-9.91,0-19.82,0-29.73,0c-4.09,0-4.45,0.37-4.45,4.56c0,26.06,0,52.12,0,78.18c0,2.32-0.02,4.64,0.01,6.95
		c0.03,2.83,0.61,3.47,3.32,3.47c10.63,0.02,21.26,0.02,31.89,0c2.75-0.01,3.36-0.64,3.38-3.42c0.03-3.92,0.02-7.83,0-11.75
		c-0.02-3-0.65-3.62-3.69-3.63c-4.72-0.02-9.43,0-14.15-0.01c-0.61,0-1.21-0.11-1.78-0.16c-0.38-6.87-0.22-17.98,0.32-19.87
		c0.84,0,1.72,0,2.59,0c3.76,0,7.51,0.03,11.27-0.01c2.47-0.03,3.09-0.69,3.11-3.18c0.03-4.08,0.03-8.15,0-12.23
		c-0.02-2.7-0.69-3.37-3.43-3.39c-4-0.03-7.99,0-11.99-0.01c-0.61,0-1.22-0.1-1.88-0.16c0-5.49,0-10.82,0-16.52
		C375.12,349.99,375.99,349.99,376.85,349.99z M248.85,334.61c4.64,0,9.27,0.03,13.91-0.02c2.42-0.03,2.96-0.6,2.97-3.02
		c0.03-4.08,0.02-8.15,0.01-12.23c-0.01-2.9-0.6-3.51-3.51-3.52c-10.47-0.02-20.94-0.02-31.41,0c-2.93,0-3.54,0.61-3.54,3.48
		c-0.01,33.89-0.01,67.79,0,101.68c0,2.83,0.49,3.31,3.4,3.33c3.84,0.03,7.67,0.02,11.51,0c3.49-0.01,3.84-0.37,3.85-3.86
		c0-0.56,0-1.12,0-1.68c0-13.83,0-27.66,0-41.49c0-0.84,0.05-1.68,0.08-2.6c4.86,0,9.41,0.01,13.97-0.01
		c2.75-0.01,3.3-0.52,3.32-3.18c0.03-4.16,0.03-8.31,0-12.47c-0.02-2.56-0.55-3.08-3.13-3.09c-4.08-0.03-8.15,0-12.23-0.02
		c-0.61,0-1.22-0.1-1.89-0.16c0-7.07,0-13.98,0-21.17C247.13,334.61,247.99,334.61,248.85,334.61z M575.52,361.55
		c-0.12-0.35-0.29-0.7-0.36-1.06c-1.79-8.6-3.58-17.2-5.35-25.8c-0.63-3.04-1.19-3.52-4.36-3.52c-4.56-0.01-9.11,0-13.67,0
		c-0.48,0-0.97-0.04-1.44,0.03c-1.53,0.23-2.18,1.21-1.83,2.71c0.11,0.47,0.28,0.92,0.42,1.37c5.48,16.85,10.99,33.7,16.42,50.57
		c0.5,1.56,0.73,3.28,0.74,4.92c0.07,9.99,0.02,19.99,0.04,29.98c0.01,2.97,0.58,3.55,3.47,3.57c4,0.03,8,0.01,11.99,0.01
		c0.24,0,0.48,0.01,0.72-0.01c2.18-0.14,2.75-0.74,2.82-3c0.02-0.56,0-1.12,0-1.68c0-9.75-0.02-19.51,0.03-29.26
		c0.01-1.33,0.19-2.72,0.6-3.98c2.89-9.05,5.86-18.07,8.8-27.11c2.69-8.28,5.39-16.55,8.05-24.83c0.71-2.22,0.01-3.26-2.27-3.28
		c-5.2-0.06-10.39-0.05-15.59,0c-1.85,0.02-2.53,0.67-3,2.47c-0.16,0.62-0.28,1.25-0.41,1.87c-1.81,8.67-3.62,17.35-5.43,26.02
		C575.78,361.56,575.65,361.55,575.52,361.55z" fill="#03FF1B"></path>
    </g>
</svg>
